<svg width="64" height="64" viewBox="0 0 64 64" fill="none" xmlns="http://www.w3.org/2000/svg">
<g clip-path="url(#clip0_2006_2674)">
<rect width="64" height="64" fill="white"/>
<path d="M21.8782 32.7292H30.2769V14.3259C30.2769 12.4127 30.5489 10.9734 31.093 10.008C31.6547 9.04268 32.3217 8.56 33.094 8.56C33.4801 8.56 33.8399 8.67409 34.1734 8.90227C34.5245 9.13044 34.8316 9.4025 35.0949 9.71844C35.3582 10.0168 35.5601 10.3328 35.7005 10.6663C35.8584 10.9822 35.9374 11.2367 35.9374 11.4298C35.9374 11.6228 35.8584 11.7369 35.7005 11.772C35.5601 11.7896 35.3933 11.8861 35.2002 12.0616C35.0247 12.2196 34.858 12.5443 34.7 13.0358C34.5596 13.5272 34.4894 14.3346 34.4894 15.458V49.2633C34.4894 49.7196 34.3314 50.0356 34.0155 50.2111C33.7171 50.4042 33.366 50.5007 32.9623 50.5007C32.6464 50.5007 32.3305 50.4568 32.0145 50.3691C31.6986 50.2813 31.409 50.1672 31.1457 50.0268C30.9 49.8864 30.6893 49.7196 30.5138 49.5266C30.3559 49.351 30.2769 49.158 30.2769 48.9473V36.4941H21.8782V49.2633C21.8782 49.7196 21.7202 50.0356 21.4043 50.2111C21.1059 50.4042 20.7549 50.5007 20.3512 50.5007C20.0352 50.5007 19.7193 50.4568 19.4034 50.3691C19.0874 50.2813 18.7978 50.1672 18.5345 50.0268C18.2888 49.8864 18.0782 49.7196 17.9027 49.5266C17.7447 49.351 17.6657 49.158 17.6657 48.9473V36.4941H13.8218C13.541 36.4941 13.2777 36.4064 13.032 36.2309C12.8038 36.0553 12.6019 35.8359 12.4264 35.5727C12.2684 35.2918 12.1368 34.9934 12.0315 34.6775C11.9437 34.3616 11.8998 34.0632 11.8998 33.7823C11.8998 33.484 11.9613 33.2382 12.0841 33.0452C12.2246 32.8345 12.4264 32.7292 12.6897 32.7292H17.6657V15.3C15.9983 15.3 14.4624 15.5808 13.0583 16.1425C11.6717 16.6866 10.4693 17.4765 9.45133 18.512C8.45086 19.5301 7.66102 20.7675 7.0818 22.2243C6.52013 23.6811 6.2393 25.3135 6.2393 27.1213C6.2393 28.2622 6.35339 29.289 6.58156 30.2017C6.80974 31.1144 7.0818 31.8955 7.39773 32.5449C7.71367 33.1768 8.02961 33.6683 8.34555 34.0193C8.66148 34.3703 8.90721 34.5459 9.08273 34.5459C9.2407 34.5459 9.35479 34.502 9.425 34.4142C9.49521 34.3265 9.60052 34.2826 9.74094 34.2826C9.88135 34.2826 9.96911 34.3791 10.0042 34.5722C10.0393 34.7653 10.0569 34.9583 10.0569 35.1514C10.0569 35.7131 9.94279 36.2484 9.71461 36.7574C9.48643 37.2489 9.19682 37.6526 8.84578 37.9685C8.51229 38.2669 8.13492 38.4512 7.71367 38.5214C7.29242 38.5916 6.88872 38.4863 6.50258 38.2055C6.02867 37.872 5.51966 37.3981 4.97555 36.7838C4.44898 36.1519 3.95753 35.3796 3.50117 34.4669C3.06237 33.5542 2.69378 32.501 2.39539 31.3075C2.11456 30.0964 1.97414 28.7537 1.97414 27.2793C1.97414 25.3661 2.21987 23.646 2.71133 22.119C3.22034 20.5744 3.89609 19.2141 4.73859 18.0381C5.59865 16.8446 6.60789 15.8266 7.76633 14.9841C8.92477 14.124 10.1534 13.4219 11.4523 12.8778C12.7687 12.3161 14.129 11.9037 15.5331 11.6404C16.9548 11.3771 18.3502 11.2455 19.7193 11.2455C20.0001 11.2455 20.2722 11.3069 20.5355 11.4298C20.7987 11.5351 21.0269 11.693 21.22 11.9037C21.4131 12.0967 21.571 12.3337 21.6939 12.6145C21.8168 12.8954 21.8782 13.1938 21.8782 13.5097V32.7292ZM45.3629 35.2567C45.3629 34.1685 45.477 33.2295 45.7052 32.4396C45.9509 31.6322 46.2844 30.974 46.7056 30.465C47.1269 29.9384 47.6096 29.5523 48.1537 29.3066C48.7153 29.0608 49.3121 28.938 49.944 28.938C50.6636 28.938 51.3657 29.1135 52.0502 29.4645C52.7348 29.8156 53.3403 30.3509 53.8669 31.0705C54.411 31.7902 54.841 32.7029 55.157 33.8087C55.4904 34.9145 55.6572 36.2221 55.6572 37.7316C55.6572 38.7847 55.587 39.8378 55.4466 40.8909C55.3237 41.9265 55.1218 42.9182 54.841 43.866C55.0341 43.9362 55.2184 43.9801 55.3939 43.9977C55.587 43.9977 55.78 43.9977 55.9731 43.9977C56.5523 43.9977 57.0614 43.8923 57.5002 43.6817C57.9565 43.4711 58.3427 43.1903 58.6586 42.8392C58.9921 42.4882 59.2554 42.0757 59.4484 41.6018C59.6415 41.1279 59.7819 40.6277 59.8697 40.1011C59.9048 39.8905 60.0189 39.7149 60.212 39.5745C60.4226 39.4341 60.6595 39.3376 60.9228 39.2849C61.1861 39.2323 61.4581 39.2323 61.739 39.2849C62.0374 39.3376 62.2919 39.4604 62.5025 39.6535C62.7131 39.829 62.8623 40.0835 62.9501 40.417C63.0554 40.733 63.0554 41.1454 62.9501 41.6545C62.7921 42.3916 62.5288 43.0849 62.1602 43.7344C61.8092 44.3663 61.3616 44.9279 60.8175 45.4194C60.2734 45.9108 59.6327 46.297 58.8955 46.5778C58.1584 46.8586 57.3334 46.9991 56.4207 46.9991C55.9292 46.9991 55.4553 46.9727 54.999 46.9201C54.5426 46.8674 54.095 46.7709 53.6562 46.6305C52.9893 47.7889 52.1204 48.7192 51.0498 49.4212C49.9791 50.1409 48.6539 50.5007 47.0742 50.5007C45.828 50.5007 44.731 50.2813 43.7832 49.8425C42.8529 49.4037 42.0631 48.7894 41.4137 47.9995C40.7818 47.1921 40.2991 46.2355 39.9656 45.1298C39.6497 44.024 39.4917 42.8129 39.4917 41.4965V15.7739C39.4917 15.3878 39.4566 15.0806 39.3864 14.8524C39.3337 14.6242 39.2723 14.4487 39.2021 14.3259C39.1495 14.1854 39.088 14.0801 39.0178 14.0099C38.9652 13.9222 38.9388 13.8344 38.9388 13.7466C38.9388 13.6413 38.9915 13.5536 39.0968 13.4834C39.2021 13.4132 39.3425 13.3517 39.518 13.2991C39.6936 13.2464 39.8779 13.2113 40.0709 13.1938C40.2816 13.1586 40.4834 13.1411 40.6765 13.1411C41.5716 13.1411 42.2737 13.378 42.7827 13.852C43.3093 14.3083 43.5726 14.8612 43.5726 15.5106V40.7593C43.5726 41.6545 43.6516 42.4794 43.8095 43.2341C43.9675 43.9889 44.2045 44.6471 44.5204 45.2088C44.8363 45.7529 45.2312 46.1829 45.7052 46.4988C46.1966 46.7972 46.7671 46.9464 47.4165 46.9464C48.0835 46.9464 48.6539 46.7797 49.1278 46.4462C49.6017 46.0951 49.9966 45.63 50.3126 45.0508C49.5403 44.5067 48.847 43.8748 48.2327 43.1552C47.6359 42.418 47.1181 41.6281 46.6793 40.7856C46.258 39.9256 45.9333 39.0304 45.7052 38.1002C45.477 37.1523 45.3629 36.2045 45.3629 35.2567ZM48.7066 35.0461C48.7066 36.3449 48.9347 37.5736 49.3911 38.732C49.865 39.8905 50.4969 40.8909 51.2867 41.7334C51.392 41.1016 51.4622 40.4785 51.4973 39.8641C51.5324 39.2323 51.55 38.6618 51.55 38.1528C51.55 36.3449 51.3569 34.9496 50.9708 33.9666C50.6022 32.9837 50.1722 32.4923 49.6807 32.4923C49.3297 32.4923 49.0752 32.7292 48.9172 33.2031C48.7768 33.6595 48.7066 34.2738 48.7066 35.0461Z" fill="#3820B0"/>
</g>
<defs>
<clipPath id="clip0_2006_2674">
<rect width="64" height="64" fill="white"/>
</clipPath>
</defs>
</svg>
